<?xml version="1.0" encoding="UTF-8"?>
<svg version="1.1" xmlns="http://www.w3.org/2000/svg" width="500" height="500">
<path d="M0 0 C165 0 330 0 500 0 C500 165 500 330 500 500 C335 500 170 500 0 500 C0 335 0 170 0 0 Z " fill="#FDFEFE" transform="translate(0,0)"/>
<path d="M0 0 C0.72413086 0.52883789 1.44826172 1.05767578 2.19433594 1.60253906 C16.93594656 12.4644347 30.6250533 24.27233532 43.5246582 37.26391602 C45.32215805 39.07221608 47.13022316 40.86945977 48.93945312 42.66601562 C55.74929737 49.46726334 62.0782675 56.40075701 68 64 C68.57113525 64.71712158 69.14227051 65.43424316 69.73071289 66.1730957 C93.89922812 96.61991116 116.20004492 132.68290291 113 173 C110.374666 194.37152055 99.62217032 212.59735644 83.0625 226.25 C74.29092707 232.95687961 65.41529413 237.35395912 55 241 C53.845 241.433125 52.69 241.86625 51.5 242.3125 C46.02491857 243.38796242 40.56059315 243.1505123 35 243 C35.51484494 237.85155062 36.14738794 232.73895363 36.9375 227.625 C37.09089844 226.62726563 37.24429687 225.62953125 37.40234375 224.6015625 C38 222 38 222 40 219 C42.43359375 217.859375 42.43359375 217.859375 45.4375 216.75 C64.74358073 208.99988874 78.4840049 194.7738983 87 176 C86.30003906 176.56074219 85.60007812 177.12148438 84.87890625 177.69921875 C83.92886719 178.45847656 82.97882813 179.21773437 82 180 C81.03964844 180.76957031 80.07929688 181.53914062 79.08984375 182.33203125 C58.76614489 198.42860695 37.27578046 206.71845822 11 205 C-8.22838544 202.56322304 -25.73010011 193.45085862 -42.82348633 184.86254883 C-49.63002849 181.46180033 -56.44023894 178.29678643 -63.56640625 175.6171875 C-64.52543098 175.25650429 -64.52543098 175.25650429 -65.50382996 174.88853455 C-75.71743142 171.16834082 -86.17142347 169.57514417 -97 169 C-85.53342747 143.57442447 -45.17071447 123.93684928 -21 114 C-18.02046369 112.92982198 -15.02464356 111.93464211 -12 111 C-51.48142065 111.12654301 -88.36228328 132.24620043 -115.56982422 159.55810547 C-116.87613595 160.87974196 -118.18093722 162.20287279 -119.484375 163.52734375 C-120.15308624 164.20616608 -120.82179749 164.8849884 -121.51077271 165.5843811 C-124.28713188 168.40632248 -127.06183702 171.22962655 -129.82128906 174.06811523 C-147.3185796 192.03992964 -165.81135066 206.82038555 -192.125 207.3125 C-213.3638871 206.76608568 -229.467807 198.15146259 -244 183 C-246.54034953 179.78165178 -248.84995569 176.49003672 -251 173 C-252.29216068 184.11258184 -245.5291666 195.45893904 -239 204 C-234.64775203 208.97094989 -230.43314785 213.4332382 -224.5 216.4375 C-221.87574833 217.92422323 -221.13958727 218.6283489 -220.0625 221.49609375 C-219.0564412 226.64515859 -218.76737907 231.76602918 -219 237 C-225.90332773 238.78632501 -232.25726373 239.33609992 -239.375 239.3125 C-240.33921875 239.32861328 -241.3034375 239.34472656 -242.296875 239.36132812 C-258.64783895 239.37228722 -275.39862144 232.49561907 -287.09643555 221.06176758 C-288.41407299 219.72384815 -289.70787163 218.3625715 -291 217 C-291.99386719 216.01580078 -291.99386719 216.01580078 -293.0078125 215.01171875 C-307.72568296 199.60085439 -311.63195521 179.75209553 -311.3359375 159.17578125 C-310.63429932 140.14746965 -300.50546082 123.82835777 -287 111 C-269.42733294 95.01773753 -244.54691313 88.16618412 -222.67124939 80.10575867 C-219.09294102 78.78652188 -215.53225969 77.43830594 -212 76 C-216.56267689 88.84569032 -227.57189257 98.58712442 -239.39453125 104.77734375 C-240.25433594 105.18082031 -241.11414063 105.58429688 -242 106 C-229.47736384 106.81669366 -219.21325773 100.78878403 -209.9375 92.875 C-194.66922701 78.51469943 -187.603599 59.89194016 -181 40.5 C-171.45304131 12.46467389 -160.57100935 -11.05880828 -133.21875 -25.46484375 C-88.89682603 -46.90883344 -37.07988441 -27.09488587 0 0 Z " fill="#FEFEFE" transform="translate(344,120)"/>
<path d="M0 0 C8.91 0 17.82 0 27 0 C27 1.65 27 3.3 27 5 C29.97 5 32.94 5 36 5 C36 3.35 36 1.7 36 0 C44.91 0 53.82 0 63 0 C63 2.64 63 5.28 63 8 C64.12535156 8.10699219 65.25070312 8.21398437 66.41015625 8.32421875 C95.76610031 12.05083388 126.07765295 31.22137239 149 49 C150.11452699 49.84773033 151.22911438 50.69538125 152.34375 51.54296875 C159.31880339 56.8934068 165.92633576 62.51346399 172.33984375 68.5234375 C174.49920973 70.53377235 176.6878842 72.46822753 178.9375 74.375 C182.62907081 77.58002487 186.0990168 80.99025419 189.5625 84.4375 C190.09286865 84.96327637 190.6232373 85.48905273 191.16967773 86.03076172 C219.89658344 114.86834282 248.07346518 153.03551246 258 193 C258.16226074 193.64549805 258.32452148 194.29099609 258.49169922 194.95605469 C262.68121218 212.43181465 262.84895121 231.67335969 258 249 C257.7215625 250.01707031 257.443125 251.03414062 257.15625 252.08203125 C253.18030227 265.15810073 246.64631231 276.48105152 238 287 C237.28972656 287.87527344 236.57945312 288.75054687 235.84765625 289.65234375 C218.9632754 309.46782869 194.70131798 319.81233982 169.33251953 322.81542969 C165.2233657 323.14058358 161.11838365 323.08715587 157 323 C156.87471924 323.7120459 156.74943848 324.4240918 156.62036133 325.15771484 C154.24297286 338.64144281 151.82519268 352.11501368 149.25 365.5625 C149.03964111 366.66706543 148.82928223 367.77163086 148.61254883 368.90966797 C148.41556396 369.9307666 148.2185791 370.95186523 148.015625 372.00390625 C147.84321289 372.89924072 147.67080078 373.7945752 147.49316406 374.71704102 C147 377 147 377 146 380 C136.76 380 127.52 380 118 380 C118 377.69 118 375.38 118 373 C115.03 372.67 112.06 372.34 109 372 C109 374.64 109 377.28 109 380 C100.42 380 91.84 380 83 380 C83 377.03 83 374.06 83 371 C86.63 370.67 90.26 370.34 94 370 C60.54122685 365.60698189 24.96679999 362.91218727 -8.62792969 367.66601562 C-11.42838965 368.0603167 -14.23311133 368.41257574 -17.0390625 368.765625 C-20.95874603 369.2701265 -24.87800805 369.7763748 -28.79296875 370.31640625 C-29.97669067 370.47798218 -29.97669067 370.47798218 -31.18432617 370.64282227 C-33.01318961 370.82741496 -33.01318961 370.82741496 -34 372 C-34 374.64 -34 377.28 -34 380 C-43.24 380 -52.48 380 -62 380 C-62 379.01 -62 378.02 -62 377 C-63.19496094 377.49113281 -64.38992187 377.98226563 -65.62109375 378.48828125 C-72.03639004 380.62671335 -78.37013145 380.32625724 -85.0625 380.1875 C-86.30966797 380.17396484 -87.55683594 380.16042969 -88.84179688 380.14648438 C-91.89498967 380.1113902 -94.9472599 380.06222267 -98 380 C-98 377.36 -98 374.72 -98 372 C-91.4 372 -84.8 372 -78 372 C-78.55429688 369.25171875 -79.10859375 366.5034375 -79.6796875 363.671875 C-80.22296889 360.97112391 -80.76556852 358.27023666 -81.30810547 355.56933594 C-81.68174396 353.71112002 -82.05607647 351.8530435 -82.43115234 349.99511719 C-88.14212169 321.69916773 -88.14212169 321.69916773 -88 315 C-88.63421875 315.2165625 -89.2684375 315.433125 -89.921875 315.65625 C-111.45742786 322.08122157 -136.23700248 317.79835145 -155.875 307.625 C-174.43990879 297.05519791 -188.11264135 281.32034489 -197 262 C-197.33 265.63 -197.66 269.26 -198 273 C-200.97 273 -203.94 273 -207 273 C-207 263.76 -207 254.52 -207 245 C-205.35 245 -203.7 245 -202 245 C-202.33 244.34 -202.66 243.68 -203 243 C-203.039992 241.00039988 -203.04346799 238.99952758 -203 237 C-204.32 237 -205.64 237 -207 237 C-207 227.76 -207 218.52 -207 209 C-205.35 209 -203.7 209 -202 209 C-201.505 205.04 -201.505 205.04 -201 201 C-202.98 201 -204.96 201 -207 201 C-207 191.76 -207 182.52 -207 173 C-204.03 173 -201.06 173 -198 173 C-197.67 178.94 -197.34 184.88 -197 191 C-196.030625 188.9375 -195.06125 186.875 -194.0625 184.75 C-177.3648424 150.73359882 -144.69736613 138.10239632 -111.25390625 125.90234375 C-98.93482368 121.37064942 -86.96925561 116.31283707 -76 109 C-75.13216206 106.65131411 -74.43498396 104.41165814 -73.80078125 102 C-73.39660456 100.54888936 -72.99204892 99.09788423 -72.5871582 97.64697266 C-72.37934723 96.88733215 -72.17153625 96.12769165 -71.95742798 95.34503174 C-68.30462526 82.06302416 -64.40799355 69.25037302 -58 57 C-57.17628906 55.3603125 -57.17628906 55.3603125 -56.3359375 53.6875 C-45.64443055 33.82460558 -26.7819263 20.96658007 -6.40625 12.48046875 C-2.96392838 11.10383079 -2.96392838 11.10383079 0 9 C0 6.03 0 3.06 0 0 Z M5 30 C3.49953125 30.46792969 3.49953125 30.46792969 1.96875 30.9453125 C-8.48316939 34.43907207 -17.6557982 39.83417784 -26 47 C-26.59296875 47.49757813 -27.1859375 47.99515625 -27.796875 48.5078125 C-43.28281032 62.64405621 -49.60615094 85.07411704 -56.22680664 104.29101562 C-61.24996745 118.81925595 -66.71910412 133.31200579 -77 145 C-77.92232422 146.13501953 -77.92232422 146.13501953 -78.86328125 147.29296875 C-86.28816286 156.17604355 -97.05366103 164.74249063 -109 166 C-111.33301986 166.03824623 -113.66711508 166.04574284 -116 166 C-115.47792969 165.74347656 -114.95585938 165.48695313 -114.41796875 165.22265625 C-101.73501666 158.62574422 -93.69886714 149.74035488 -86 138 C-86.33 137.34 -86.66 136.68 -87 136 C-87.93960571 136.37584229 -87.93960571 136.37584229 -88.89819336 136.75927734 C-90.80528242 137.52211297 -92.71243387 138.28479263 -94.61962891 139.04736328 C-96.85803271 139.94305422 -99.09597849 140.83989051 -101.33349609 141.73779297 C-107.11205759 144.05486306 -112.89589916 146.35495905 -118.69921875 148.609375 C-134.34865699 154.71359865 -149.32929084 160.63123527 -162 172 C-162.60972656 172.51691406 -163.21945313 173.03382813 -163.84765625 173.56640625 C-175.22226338 183.9046027 -183.69628266 200.63447015 -185.30566406 215.89916992 C-185.43621372 218.85621927 -185.46797555 221.79027217 -185.4375 224.75 C-185.42920166 225.79913574 -185.42090332 226.84827148 -185.41235352 227.92919922 C-184.93693606 249.91344986 -175.13575141 267.57075503 -159.59375 282.71484375 C-146.64525187 294.12278262 -130.4664926 299.38376998 -113.5 299.25 C-112.51902344 299.25773437 -111.53804688 299.26546875 -110.52734375 299.2734375 C-104.38336446 299.25707537 -98.94711001 298.54821459 -93 297 C-93.14139481 294.74971671 -93.28828003 292.49977794 -93.4375 290.25 C-93.51871094 288.99703125 -93.59992188 287.7440625 -93.68359375 286.453125 C-93.93783043 282.61565831 -93.93783043 282.61565831 -95 279 C-96.99526172 277.30452319 -96.99526172 277.30452319 -99.5 275.8125 C-111.73638255 267.55032717 -122.08646698 254.89139101 -125 240 C-125.19170968 237.60139981 -125.15384855 235.41029393 -125 233 C-124.56171875 233.66644531 -124.1234375 234.33289063 -123.671875 235.01953125 C-113.45578683 249.86608215 -99.09064513 262.29237662 -81 266 C-65.84389523 268.77861921 -50.80559871 267.1520856 -36.9375 260.4375 C-36.33760254 260.15197266 -35.73770508 259.86644531 -35.11962891 259.57226562 C-19.36279977 251.43701433 -7.46083172 237.70327966 4.69897461 225.1640625 C23.14427285 206.19024025 42.64010865 191.47530317 67 181 C67.87398437 180.62230469 68.74796875 180.24460938 69.6484375 179.85546875 C83.68617562 174.29794151 98.93068433 171.25462745 114 171 C112.92298828 171.38478516 112.92298828 171.38478516 111.82421875 171.77734375 C80.2574809 183.45271254 51.60169013 201.86313931 29 227 C29 227.66 29 228.32 29 229 C30.01578125 229.10957031 31.0315625 229.21914063 32.078125 229.33203125 C51.62388247 231.53665526 68.87663301 237.6717958 86.37088013 246.46472168 C114.51572499 260.56567692 141.75663318 270.61308097 173.17578125 260.74609375 C188.43640344 255.56893449 200.16051247 246.65021367 212 236 C212 243.61584064 203.75258796 252.46587535 199 258 C198.50242187 258.59296875 198.00484375 259.1859375 197.4921875 259.796875 C190.28341282 267.69392465 180.56926197 273.07011799 170.75 277 C166.57873012 278.71842609 166.57873012 278.71842609 163.81640625 282.05078125 C163.29348643 284.39783996 163.12252739 286.60083469 163 289 C162.65113031 290.58929525 162.27642538 292.17315914 161.875 293.75 C161.11610019 296.90235305 160.92061348 299.75649349 161 303 C179.49422192 305.12616055 196.67305489 295.97183771 210.76171875 284.8125 C226.39150019 271.40870581 236.64543612 253.60243391 239 233 C240.61565226 211.45042011 235.22705897 192.3184991 226 173 C225.65984863 172.28392578 225.31969727 171.56785156 224.96923828 170.83007812 C211.46672184 142.88852866 190.63984424 118.22403118 168.73608398 96.4753418 C166.92778392 94.67784195 165.13054023 92.86977684 163.33398438 91.06054688 C156.54433829 84.26191126 149.59987966 77.90100609 142 72 C140.79307495 71.05048462 140.79307495 71.05048462 139.56176758 70.08178711 C102.70193537 41.32725832 52.89823085 14.07054249 5 30 Z " fill="#03BF65" transform="translate(218,60)"/>
<path d="M0 0 C1.20540436 -0.00315216 2.41080872 -0.00630432 3.65274048 -0.009552 C5.59653091 -0.00651566 5.59653091 -0.00651566 7.57958984 -0.00341797 C8.93614723 -0.00409263 10.2927045 -0.00506401 11.64926147 -0.00631714 C14.49209749 -0.00778947 17.33490203 -0.0056565 20.17773438 -0.00097656 C23.79176693 0.00468775 27.40572467 0.00145983 31.01975441 -0.00454903 C33.82360376 -0.00819524 36.62743594 -0.00699703 39.43128586 -0.00442123 C41.40240274 -0.00344385 43.37352033 -0.00644384 45.34463501 -0.009552 C66.12570016 0.04395149 66.12570016 0.04395149 74.91552734 4.75439453 C94.68739518 14.63027382 114.78230534 20.52630946 136.91552734 21.12939453 C136.38527523 28.36205922 135.43437926 35.35307814 133.95458984 42.44970703 C133.66773819 43.86411575 133.66773819 43.86411575 133.37509155 45.30709839 C132.7691166 48.29069389 132.1553098 51.27260263 131.54052734 54.25439453 C130.73798968 58.17304555 129.93894405 62.09239653 129.14208984 66.01220703 C128.94979797 66.95630432 128.7575061 67.90040161 128.55938721 68.87310791 C126.86193138 77.26674184 125.34554556 85.68648779 123.91552734 94.12939453 C117.71065802 93.62172341 111.60880605 92.8013167 105.47021484 91.78955078 C104.69284973 91.66212494 103.91548462 91.5346991 103.11456299 91.40341187 C99.87937524 90.87124888 96.6446846 90.3366506 93.41210938 89.78881836 C70.69200667 85.9537175 48.06585264 84.69109789 25.04052734 84.69189453 C23.83561646 84.69016235 22.63070557 84.68843018 21.38928223 84.68664551 C5.0297155 84.69688067 -11.09633365 85.35052807 -27.33447266 87.37939453 C-28.56759186 87.53288864 -28.56759186 87.53288864 -29.82562256 87.68948364 C-39.83255678 88.97338215 -49.70791192 90.75228665 -59.57647705 92.84674072 C-60.36898865 93.01317078 -61.16150024 93.17960083 -61.97802734 93.35107422 C-62.67563171 93.50114929 -63.37323608 93.65122437 -64.09197998 93.80584717 C-66.08447266 94.12939453 -66.08447266 94.12939453 -70.08447266 94.12939453 C-70.83481659 90.23362736 -71.58467246 86.33776638 -72.33447266 82.44189453 C-72.56191162 81.26103271 -72.78935059 80.0801709 -73.02368164 78.86352539 C-74.07972229 73.37558856 -75.13304945 67.8872591 -76.16650391 62.39501953 C-76.49320491 60.66062156 -76.82002378 58.92624579 -77.14697266 57.19189453 C-77.38383789 55.93481689 -77.38383789 55.93481689 -77.62548828 54.65234375 C-78.92915986 47.80008628 -80.35790414 40.97692901 -81.8659668 34.16674805 C-82.61674238 30.71045439 -83.08447266 27.6854776 -83.08447266 24.12939453 C-82.42060547 24.28923828 -81.75673828 24.44908203 -81.07275391 24.61376953 C-64.24355966 27.5176305 -46.9674501 24.1346324 -32.08447266 16.12939453 C-31.04291016 15.58025391 -30.00134766 15.03111328 -28.92822266 14.46533203 C-22.94592949 11.15694263 -17.96240157 7.56439873 -13.11962891 2.73095703 C-9.27926646 -0.29120919 -4.72476973 0.00355581 0 0 Z " fill="#FDFEFE" transform="translate(226.08447265625,322.87060546875)"/>
<path d="M0 0 C2.64 0.66 5.28 1.32 8 2 C8.125 8.75 8.125 8.75 7 11 C6.84323225 13.69655446 6.74163685 16.37129977 6.68359375 19.0703125 C6.66281265 19.86654022 6.64203156 20.66276794 6.62062073 21.48312378 C6.55515851 24.03032685 6.49625585 26.57763425 6.4375 29.125 C6.3943116 30.85027127 6.35069721 32.57553193 6.30664062 34.30078125 C6.19948055 38.53374685 6.09820377 42.76681753 6 47 C3.03 47 0.06 47 -3 47 C-3.04980918 42.03785631 -3.08591147 37.07586139 -3.10986328 32.11352539 C-3.11985897 30.42892925 -3.13346004 28.74435019 -3.15087891 27.05981445 C-3.17541276 24.62446859 -3.18654758 22.18935408 -3.1953125 19.75390625 C-3.20563507 19.01290176 -3.21595764 18.27189728 -3.22659302 17.50843811 C-3.22783679 11.57973092 -2.68616474 5.37232949 0 0 Z " fill="#0FC26C" transform="translate(14,106)"/>
<path d="M0 0 C2.97 0 5.94 0 9 0 C9 9.24 9 18.48 9 28 C6.03 28 3.06 28 0 28 C0 18.76 0 9.52 0 0 Z " fill="#13C36F" transform="translate(11,341)"/>
<path d="M0 0 C2.97 0 5.94 0 9 0 C9 9.24 9 18.48 9 28 C6.03 28 3.06 28 0 28 C0 18.76 0 9.52 0 0 Z " fill="#13C36F" transform="translate(11,197)"/>
<path d="M0 0 C2.97 0 5.94 0 9 0 C9 9.24 9 18.48 9 28 C6.03 28 3.06 28 0 28 C0 18.76 0 9.52 0 0 Z " fill="#13C36F" transform="translate(11,161)"/>
<path d="M0 0 C2.97 0 5.94 0 9 0 C9 8.91 9 17.82 9 27 C6.03 27 3.06 27 0 27 C0 18.09 0 9.18 0 0 Z " fill="#0DC26B" transform="translate(480,321)"/>
<path d="M0 0 C2.97 0 5.94 0 9 0 C9 8.91 9 17.82 9 27 C6.03 27 3.06 27 0 27 C0 18.09 0 9.18 0 0 Z " fill="#0DC26B" transform="translate(480,285)"/>
<path d="M0 0 C2.97 0 5.94 0 9 0 C9 8.91 9 17.82 9 27 C6.03 27 3.06 27 0 27 C0 18.09 0 9.18 0 0 Z " fill="#0DC26B" transform="translate(480,249)"/>
<path d="M0 0 C2.97 0 5.94 0 9 0 C9 8.91 9 17.82 9 27 C6.03 27 3.06 27 0 27 C0 18.09 0 9.18 0 0 Z " fill="#0DC26B" transform="translate(480,213)"/>
<path d="M0 0 C2.97 0 5.94 0 9 0 C9 8.91 9 17.82 9 27 C6.03 27 3.06 27 0 27 C0 18.09 0 9.18 0 0 Z " fill="#0DC26B" transform="translate(480,177)"/>
<path d="M0 0 C2.97 0 5.94 0 9 0 C9 8.91 9 17.82 9 27 C6.03 27 3.06 27 0 27 C0 18.09 0 9.18 0 0 Z " fill="#0DC26B" transform="translate(480,141)"/>
<path d="M0 0 C2.97 0 5.94 0 9 0 C9.02892385 4.12498538 9.04677267 8.24994485 9.0625 12.375 C9.07087891 13.550625 9.07925781 14.72625 9.08789062 15.9375 C9.09111328 17.05898438 9.09433594 18.18046875 9.09765625 19.3359375 C9.10289307 20.37282715 9.10812988 21.4097168 9.11352539 22.47802734 C9 25 9 25 8 27 C5.03 26.67 2.06 26.34 -1 26 C-0.67 17.42 -0.34 8.84 0 0 Z " fill="#0EC26C" transform="translate(480,357)"/>
<path d="M0 0 C2.74698349 6.2264959 3.14739595 12.13556798 3.0625 18.875 C3.05798828 19.56335938 3.05347656 20.25171875 3.04882812 20.9609375 C3.03716336 22.64066335 3.01923271 24.32034375 3 26 C0.03 26 -2.94 26 -6 26 C-6.13277344 24.85402344 -6.26554687 23.70804688 -6.40234375 22.52734375 C-6.58068188 20.99739032 -6.75906996 19.46744271 -6.9375 17.9375 C-7.02451172 17.18533203 -7.11152344 16.43316406 -7.20117188 15.65820312 C-7.73463639 11.09411781 -8.32986298 6.54606466 -9 2 C-5.62902617 0.50178941 -3.79557881 0 0 0 Z " fill="#0FC26C" transform="translate(486,106)"/>
<path d="M0 0 C8.25 0 16.5 0 25 0 C25.33 2.97 25.66 5.94 26 9 C17.42 9 8.84 9 0 9 C0 6.03 0 3.06 0 0 Z " fill="#0CC26A" transform="translate(409,431)"/>
<path d="M0 0 C1.19625 0.45375 2.3925 0.9075 3.625 1.375 C9.9232958 3.50130466 16.42471272 4.20497949 23 5 C23 7.97 23 10.94 23 14 C13.15148909 14.81169046 5.97758075 12.71852457 -3 9 C-2.44271087 5.65626525 -1.64826111 2.96687001 0 0 Z " fill="#0DC26B" transform="translate(53,426)"/>
<path d="M0 0 C6.68617041 5.22233428 12.09811114 11.41299389 16 19 C16 19.99 16 20.98 16 22 C13.36 22.99 10.72 23.98 8 25 C7.56429688 24.27554688 7.12859375 23.55109375 6.6796875 22.8046875 C2.66725011 16.22379032 2.66725011 16.22379032 -2.5 10.5625 C-3.325 9.716875 -4.15 8.87125 -5 8 C-4.59482503 4.19135526 -2.78531056 2.51576438 0 0 Z " fill="#09C168" transform="translate(466,76)"/>
<path d="M0 0 C2.5 2.25 2.5 2.25 5 5 C5 9.70715465 4.39201702 10.08447886 1.25 13.3125 C-2.21209651 17.02013527 -4.69894237 20.49376213 -7 25 C-10.37462715 24.45276317 -12.08235 23.9451 -15 22 C-13.89819397 13.16958357 -6.30598824 5.83303912 0 0 Z " fill="#09C169" transform="translate(33,76)"/>
<path d="M0 0 C1.54296875 1.50390625 1.54296875 1.50390625 3.1875 3.5625 C6.76515463 7.85109882 10.71231805 11.43621241 15 15 C13.79641403 18.42559084 12.64107354 20.53258609 10 23 C3.07917332 18.0588897 -2.49535464 12.46763296 -8 6 C-6.24081631 1.94034532 -4.71412298 0 0 0 Z " fill="#08C168" transform="translate(31,407)"/>
<path d="M0 0 C4.455 0.99 4.455 0.99 9 2 C6.17666449 11.03467364 2.68388198 18.42149069 -3 26 C-5.31 24.35 -7.62 22.7 -10 21 C-8.27502493 16.3970402 -6.0904129 12.06744176 -3.875 7.6875 C-3.50246094 6.94693359 -3.12992187 6.20636719 -2.74609375 5.44335938 C-1.83255194 3.62798783 -0.91652513 1.81386718 0 0 Z " fill="#08C168" transform="translate(477,391)"/>
<path d="M0 0 C2.88437779 1.29299694 4.87219421 2.65941363 7 5 C4.49288917 11.49569625 -2.92697086 14.60390862 -8.94921875 17.33984375 C-11.28534336 18.27629313 -13.62411832 19.17024523 -16 20 C-17.49821059 16.62902617 -18 14.79557881 -18 11 C-16.95199219 10.45730469 -15.90398437 9.91460937 -14.82421875 9.35546875 C-13.44515956 8.63310441 -12.06626171 7.91043199 -10.6875 7.1875 C-9.99720703 6.83107422 -9.30691406 6.47464844 -8.59570312 6.10742188 C-7.92861328 5.75615234 -7.26152344 5.40488281 -6.57421875 5.04296875 C-5.96151123 4.72352295 -5.34880371 4.40407715 -4.7175293 4.07495117 C-2.86356728 2.91461076 -1.48565744 1.59703203 0 0 Z " fill="#09C168" transform="translate(460,417)"/>
<path d="M0 0 C1.134375 0.020625 2.26875 0.04125 3.4375 0.0625 C3.70304687 1.13628906 3.96859375 2.21007812 4.2421875 3.31640625 C4.59889421 4.7526201 4.95566866 6.18881712 5.3125 7.625 C5.48652344 8.32947266 5.66054688 9.03394531 5.83984375 9.75976562 C6.95044815 14.22274998 8.14951216 18.64737052 9.4375 23.0625 C6.625 24.625 6.625 24.625 3.4375 26.0625 C2.4475 25.7325 1.4575 25.4025 0.4375 25.0625 C-0.6953125 22.69921875 -0.6953125 22.69921875 -1.6875 19.75 C-2.02007812 18.78449219 -2.35265625 17.81898438 -2.6953125 16.82421875 C-3.93866499 12.86453313 -4.70127282 9.54127956 -4.6875 5.375 C-4.69007812 4.58738281 -4.69265625 3.79976563 -4.6953125 2.98828125 C-4.45513436 -0.4943018 -3.62030754 0.06351417 0 0 Z " fill="#08C168" transform="translate(16.5625,376.9375)"/>
<path d="M0 0 C0 2.97 0 5.94 0 9 C-1.423125 9.391875 -2.84625 9.78375 -4.3125 10.1875 C-10.13590901 11.92035991 -15.5335021 14.37067687 -21 17 C-23.0625 14.1875 -23.0625 14.1875 -25 11 C-24 8 -24 8 -20.796875 6.2109375 C-19.45286408 5.58816809 -18.10361591 4.97660707 -16.75 4.375 C-16.08097656 4.06304687 -15.41195312 3.75109375 -14.72265625 3.4296875 C-9.70218311 1.14137754 -5.57916076 0 0 0 Z " fill="#09C168" transform="translate(66,61)"/>
<path d="M0 0 C6.1019827 0.5010627 10.88851993 1.89831154 16.4375 4.4375 C17.15615234 4.75009766 17.87480469 5.06269531 18.61523438 5.38476562 C23.8647179 7.72943579 23.8647179 7.72943579 25 10 C23.02 12.97 23.02 12.97 21 16 C17.57843781 15.5585081 14.78638661 14.50471539 11.6875 13.0625 C7.50784754 11.13396908 3.49218281 9.98011261 -1 9 C-0.67 6.03 -0.34 3.06 0 0 Z " fill="#09C168" transform="translate(434,61)"/>
<path d="M0 0 C8.91 0 17.82 0 27 0 C27 2.64 27 5.28 27 8 C18.09 8 9.18 8 0 8 C0 5.36 0 2.72 0 0 Z " fill="#02BF64" transform="translate(398,60)"/>
<path d="M0 0 C8.91 0 17.82 0 27 0 C27 2.64 27 5.28 27 8 C18.09 8 9.18 8 0 8 C0 5.36 0 2.72 0 0 Z " fill="#02BF64" transform="translate(362,60)"/>
<path d="M0 0 C8.91 0 17.82 0 27 0 C27 2.64 27 5.28 27 8 C18.09 8 9.18 8 0 8 C0 5.36 0 2.72 0 0 Z " fill="#02BF64" transform="translate(326,60)"/>
<path d="M0 0 C8.91 0 17.82 0 27 0 C27 2.64 27 5.28 27 8 C18.09 8 9.18 8 0 8 C0 5.36 0 2.72 0 0 Z " fill="#02BF64" transform="translate(290,60)"/>
<path d="M0 0 C8.91 0 17.82 0 27 0 C27 2.64 27 5.28 27 8 C18.09 8 9.18 8 0 8 C0 5.36 0 2.72 0 0 Z " fill="#02BF64" transform="translate(182,60)"/>
<path d="M0 0 C8.91 0 17.82 0 27 0 C27 2.64 27 5.28 27 8 C18.09 8 9.18 8 0 8 C0 5.36 0 2.72 0 0 Z " fill="#02BF64" transform="translate(146,60)"/>
<path d="M0 0 C8.91 0 17.82 0 27 0 C27 2.64 27 5.28 27 8 C18.09 8 9.18 8 0 8 C0 5.36 0 2.72 0 0 Z " fill="#02BF64" transform="translate(110,60)"/>
<path d="M0 0 C8.58 0 17.16 0 26 0 C26 2.64 26 5.28 26 8 C17.42 8 8.84 8 0 8 C0 5.36 0 2.72 0 0 Z " fill="#00BF63" transform="translate(373,432)"/>
<path d="M0 0 C8.58 0 17.16 0 26 0 C26 2.64 26 5.28 26 8 C17.42 8 8.84 8 0 8 C0 5.36 0 2.72 0 0 Z " fill="#00BF63" transform="translate(265,432)"/>
<path d="M0 0 C8.58 0 17.16 0 26 0 C26 2.64 26 5.28 26 8 C17.42 8 8.84 8 0 8 C0 5.36 0 2.72 0 0 Z " fill="#00BF63" transform="translate(229,432)"/>
<path d="M0 0 C8.58 0 17.16 0 26 0 C26 2.64 26 5.28 26 8 C17.42 8 8.84 8 0 8 C0 5.36 0 2.72 0 0 Z " fill="#00BF63" transform="translate(193,432)"/>
<path d="M0 0 C8.58 0 17.16 0 26 0 C26 2.64 26 5.28 26 8 C17.42 8 8.84 8 0 8 C0 5.36 0 2.72 0 0 Z " fill="#00BF63" transform="translate(85,432)"/>
<path d="M0 0 C8.58 0 17.16 0 26 0 C26 2.64 26 5.28 26 8 C17.42 8 8.84 8 0 8 C0 5.36 0 2.72 0 0 Z " fill="#00BF63" transform="translate(75,60)"/>
</svg>
